<svg xmlns="http://www.w3.org/2000/svg" width="59" height="59" viewBox="0 0 59 59">
  <g id="Groupe_3" data-name="Groupe 3" transform="translate(-89 -45)">
    <rect id="Rectangle_1" data-name="Rectangle 1" width="59" height="59" transform="translate(89 45)" fill="#009d05"/>
    <g id="Icon_feather-image" data-name="Icon feather-image" transform="translate(100.5 56.5)">
      <path id="Tracé_2" data-name="Tracé 2" d="M7.5,4.5h21a3,3,0,0,1,3,3v21a3,3,0,0,1-3,3H7.5a3,3,0,0,1-3-3V7.5a3,3,0,0,1,3-3Z" fill="none" stroke="#fff" stroke-linecap="round" stroke-linejoin="round" stroke-width="3"/>
      <path id="Tracé_3" data-name="Tracé 3" d="M15,12.75a2.25,2.25,0,1,1-2.25-2.25A2.25,2.25,0,0,1,15,12.75Z" fill="none" stroke="#fff" stroke-linecap="round" stroke-linejoin="round" stroke-width="3"/>
      <path id="Tracé_4" data-name="Tracé 4" d="M31.5,22.5,24,15,7.5,31.5" fill="none" stroke="#fff" stroke-linecap="round" stroke-linejoin="round" stroke-width="3"/>
    </g>
  </g>
</svg>
