<svg xmlns="http://www.w3.org/2000/svg" width="23.536" height="21.731" viewBox="0 0 23.536 21.731">
  <g id="Icon_ionic-md-thumbs-up" data-name="Icon ionic-md-thumbs-up" transform="translate(-3.375 -4.5)">
    <path id="Tracé_1" data-name="Tracé 1" d="M13.4,26.23h9.733a2.076,2.076,0,0,0,1.935-1.324L28.3,17.244a2.166,2.166,0,0,0,.147-.792V14.267a2.5,2.5,0,0,0-2.139-2.524H19.563l1.019-4.612.034-.34a1.64,1.64,0,0,0-.47-1.149L19,4.5l-7.13,7.2a2.178,2.178,0,0,0-.622,1.534V24.1A2.134,2.134,0,0,0,13.4,26.23Z" transform="translate(-1.537)" fill="#fff"/>
    <path id="Tracé_2" data-name="Tracé 2" d="M3.375,15.75H7V28.426H3.375Z" transform="translate(0 -2.196)" fill="#fff"/>
  </g>
</svg>
